<svg width="19" height="22" viewBox="0 0 19 22" fill="none" xmlns="http://www.w3.org/2000/svg">
<path d="M15.4077 11.6258C15.3979 9.82322 16.2107 8.4627 17.8557 7.46073C16.9353 6.13951 15.5448 5.41259 13.7088 5.27015C11.9707 5.13263 10.0711 6.28686 9.37585 6.28686C8.64145 6.28686 6.95723 5.31927 5.6353 5.31927C2.90333 5.36348 0 7.50494 0 11.8615C0 13.1484 0.235008 14.4778 0.705025 15.8498C1.33171 17.6523 3.59367 22.0728 5.95355 21.9991C7.18734 21.9696 8.05883 21.1199 9.66472 21.1199C11.2216 21.1199 12.0295 21.9991 13.4053 21.9991C15.7847 21.9647 17.8313 17.947 18.4286 16.1395C15.2364 14.6317 15.4077 11.7191 15.4077 11.6258ZM12.6366 3.56092C13.9732 1.96955 13.8508 0.52063 13.8116 0C12.6317 0.0687625 11.2657 0.805504 10.4872 1.71415C9.63045 2.68665 9.12616 3.88999 9.23387 5.2456C10.5117 5.34383 11.677 4.68567 12.6366 3.56092Z" fill="#1D2026"/>
</svg>
