<svg width="1920" height="394" viewBox="0 0 1920 394" fill="none" xmlns="http://www.w3.org/2000/svg">
<g opacity="0.1">
<path d="M1920 521.739V82.2189C1839.39 121.089 1781.31 199.245 1770.69 291.859C1738.77 251.718 1689.54 225.951 1634.25 225.951C1578.35 225.951 1528.63 252.301 1496.75 293.213C1466.48 229.451 1401.5 185.347 1326.18 185.347C1326.05 185.347 1325.92 185.358 1325.78 185.358C1326.02 181.636 1326.18 177.895 1326.18 174.115C1326.18 77.952 1248.18 0 1151.96 0C1056.99 0 979.816 75.9643 977.834 170.408C928.969 115.871 858.004 81.5244 778.987 81.5244C675.401 81.5244 585.665 140.548 541.438 226.742C518.128 205.154 486.944 191.939 452.657 191.939C422.429 191.939 394.623 202.226 372.485 219.447C344.23 161.406 284.668 121.396 215.741 121.396C181.639 121.396 149.855 131.223 122.99 148.149C112.9 80.734 64.1387 25.9853 0 7.10258V521.739H1920Z" fill="#007AFF"/>
<path d="M1918.69 656.135V223.994C1911.1 222.569 1903.27 221.794 1895.26 221.794C1833.72 221.794 1782.45 265.71 1770.99 323.928C1747.9 299.555 1715.27 284.327 1679.06 284.327C1653.52 284.327 1629.76 291.918 1609.86 304.934C1590.1 219.544 1513.67 155.877 1422.33 155.877C1358.29 155.877 1301.6 187.184 1266.59 235.309C1245.48 163.982 1179.54 111.931 1101.42 111.931C1008.23 111.931 932.382 185.971 929.285 278.461C908.382 263.229 882.66 254.222 854.819 254.222C805.73 254.222 763.194 282.181 742.164 323.037C706.842 280.975 653.908 254.222 594.709 254.222C570.349 254.222 547.067 258.795 525.615 267.053C527.698 257.931 528.838 248.447 528.838 238.691C528.838 168.682 472.121 111.927 402.159 111.927C348.799 111.927 303.175 144.958 284.516 191.688C249.528 143.38 192.719 111.927 128.539 111.927C79.1319 111.927 34.0869 130.568 0 161.18V656.135H1918.69Z" fill="#3395FF"/>
<path d="M1920 703.285V272.386C1838.49 282.06 1767.78 326.89 1723.42 391.287C1699.87 379.302 1673.24 372.503 1645 372.503C1579.41 372.503 1522.35 408.965 1492.96 462.72C1471.57 441.1 1441.9 427.69 1409.08 427.69C1395.32 427.69 1382.12 430.071 1369.84 434.401C1373.17 420.984 1374.97 406.965 1374.97 392.515C1374.97 296.89 1297.43 219.372 1201.8 219.372C1123.98 219.372 1058.16 270.689 1036.32 341.324C1015.75 323.846 989.111 313.281 960 313.281C913.312 313.281 872.962 340.403 853.838 379.743C822.139 339.301 772.871 313.281 717.494 313.281C627.419 313.281 553.432 382.047 545.124 469.929C493.978 410.013 417.948 371.973 332.988 371.973C271.947 371.973 215.526 391.64 169.606 424.904C153.376 346.111 83.6088 286.866 0 286.866V703.285H1920Z" fill="#84BAF5"/>
<path d="M1920 754.154V288.502C1872.64 313.022 1840.27 362.394 1840.27 419.356C1840.27 426.697 1840.82 433.908 1841.86 440.961C1816.03 427.188 1786.54 419.356 1755.21 419.356C1665.73 419.356 1591.17 483.057 1574.43 567.535C1547.72 540.691 1510.72 524.065 1469.83 524.065C1421.14 524.065 1377.97 547.648 1351.11 583.988C1332.58 459.558 1225.19 364.097 1095.47 364.097C973.135 364.097 870.716 449.019 843.898 563.051C801.755 507.423 734.96 471.463 659.736 471.463C555.41 471.463 467.289 540.614 438.7 635.524C412.239 596.043 367.194 570.039 316.059 570.039C292.055 570.039 269.41 575.803 249.379 585.967C221.612 489.754 132.873 419.352 27.6175 419.352C18.2645 419.352 9.0612 419.974 0 421.051V754.151H1920V754.154Z" fill="white"/>
</g>
</svg>
