<svg width="104" height="77" viewBox="0 0 104 77" fill="none" xmlns="http://www.w3.org/2000/svg">
<g clip-path="url(#clip0_1_221)">
<rect x="99.9526" y="53.873" width="34.4262" height="19.9066" rx="9.95328" transform="rotate(138.345 99.9526 53.873)" fill="#007AFF"/>
<circle cx="86.3942" cy="53.2447" r="1.99066" transform="rotate(138.345 86.3942 53.2447)" fill="white"/>
<circle cx="80.4448" cy="58.537" r="1.99066" transform="rotate(138.345 80.4448 58.537)" fill="white"/>
<circle cx="74.4954" cy="63.8293" r="1.99066" transform="rotate(138.345 74.4954 63.8293)" fill="white"/>
</g>
<path d="M80.8727 29.9675C88.1729 27.2786 104.212 24.4933 103.349 23.6285C102.484 22.7636 82.0264 22.6673 74.6299 27.5656C69.0928 31.2334 59.6284 42.2742 55.2196 47.5931C53.6511 37.6668 49.8103 21.7199 45.197 16.3105C38.3174 8.24174 0 0 0 0C1.72776 4.41867 27.6619 15.7523 35.0349 21.1302C41.0928 25.5508 42.2054 44.9887 43.369 52.7488C38.7027 54.4746 35.6874 56.1631 38.17 57.767C42.5965 60.625 51.5321 62.1916 57.0535 61.4722C60.4815 61.024 70.8854 55.5164 69.9242 52.6388C69.5311 51.4594 67.3827 50.4785 64.4697 49.8948C68.3832 44.3419 75.2471 32.0393 80.8727 29.9675Z" fill="#00336B"/>
<defs>
<clipPath id="clip0_1_221">
<rect x="99.9526" y="53.873" width="34.4262" height="19.9066" rx="9.95328" transform="rotate(138.345 99.9526 53.873)" fill="white"/>
</clipPath>
</defs>
</svg>
