<svg width="88" height="57" viewBox="0 0 88 57" fill="none" xmlns="http://www.w3.org/2000/svg">
<g clip-path="url(#clip0_1_214)">
<rect x="51.582" y="6" width="23.9071" height="13.824" rx="6.912" transform="rotate(23.8156 51.582 6)" fill="#007AFF"/>
<circle cx="55.094" cy="14.747" r="1.3824" transform="rotate(23.8156 55.094 14.747)" fill="white"/>
<circle cx="60.1527" cy="16.9798" r="1.3824" transform="rotate(23.8156 60.1527 16.9798)" fill="white"/>
<circle cx="65.2115" cy="19.2127" r="1.3824" transform="rotate(23.8156 65.2115 19.2127)" fill="white"/>
</g>
<path d="M75.8787 23.8487C71.8853 21.852 61.656 27.0527 55.6527 28.4679C55.6707 28.4466 55.6887 28.4335 55.7084 28.4122C59.5511 24.0109 57.4692 20.6464 53.787 20.6464C52.0524 20.6464 50.3685 21.7521 49.0565 22.9167C46.4127 15.4622 42.5159 3.04612 34.3374 0.556363C23.2924 -2.80481 0 10.1616 0 10.1616C0 10.1616 25.2383 4.19602 27.7346 11.4818C30.7354 20.2468 33.6167 28.1714 37.2186 31.7734C32.5356 36.4564 27.3743 38.9773 32.1769 40.1779C36.9795 41.3786 42.0491 42.0469 49.0139 37.4834C58.4307 38.4171 68.8369 32.653 75.2448 37.0264C86.6027 44.7774 81.484 56.9871 81.484 56.9871C81.484 56.9871 88.0884 48.463 87.728 41.6194C87.3644 34.7758 81.1613 26.4908 75.8787 23.8487Z" fill="#00336B"/>
<defs>
<clipPath id="clip0_1_214">
<rect x="51.582" y="6" width="23.9071" height="13.824" rx="6.912" transform="rotate(23.8156 51.582 6)" fill="white"/>
</clipPath>
</defs>
</svg>
