<svg width="43" height="14" viewBox="0 0 43 14" fill="none" xmlns="http://www.w3.org/2000/svg">
<path d="M0.184547 0.00157207C1.3409 0.0785971 9.20524 1.31197 13.0604 2.23725C16.9155 3.16252 20.9247 8.48212 21.85 8.71319C22.7753 8.94427 27.2466 8.4051 31.1018 8.09602C34.9569 7.78792 42.3582 12.0282 42.3582 12.0282C42.3582 13.6477 34.8789 11.18 32.2581 11.0259C29.6364 10.8719 25.5501 11.7201 24.7019 12.4133C23.8536 13.1075 22.2351 14.0328 20.8467 13.9558C19.4593 13.8788 15.5271 11.1029 15.141 10.5638C14.7549 10.0236 16.7605 9.79251 16.7605 9.79251C16.7605 9.79251 16.7605 9.79253 14.91 7.47983C13.0594 5.16713 8.97319 4.0878 6.27439 3.3936C3.57754 2.70038 -0.971803 -0.0754529 0.184547 0.00157207Z" fill="#00336B"/>
</svg>
